<mxfile host="app.diagrams.net" agent="Mozilla/5.0 (Windows NT 10.0; Win64; x64) AppleWebKit/537.36 (KHTML, like Gecko) Chrome/128.0.0.0 Safari/537.36" version="24.7.8">
  <diagram name="Página-1" id="mlbMOu-FUf_WX9eLsM7R">
    <mxGraphModel dx="1434" dy="772" grid="1" gridSize="10" guides="1" tooltips="1" connect="1" arrows="1" fold="1" page="1" pageScale="1" pageWidth="827" pageHeight="1169" math="0" shadow="0">
      <root>
        <mxCell id="0" />
        <mxCell id="1" parent="0" />
        <mxCell id="TVnabSG94cQ8gydF37tB-9" style="edgeStyle=orthogonalEdgeStyle;rounded=0;orthogonalLoop=1;jettySize=auto;html=1;exitX=1;exitY=0.25;exitDx=0;exitDy=0;" edge="1" parent="1" source="TVnabSG94cQ8gydF37tB-1">
          <mxGeometry relative="1" as="geometry">
            <mxPoint x="800" y="298" as="targetPoint" />
            <Array as="points">
              <mxPoint x="795" y="298" />
              <mxPoint x="795" y="290" />
              <mxPoint x="800" y="290" />
            </Array>
          </mxGeometry>
        </mxCell>
        <mxCell id="TVnabSG94cQ8gydF37tB-10" style="edgeStyle=orthogonalEdgeStyle;rounded=0;orthogonalLoop=1;jettySize=auto;html=1;exitX=0.5;exitY=1;exitDx=0;exitDy=0;" edge="1" parent="1" source="TVnabSG94cQ8gydF37tB-1">
          <mxGeometry relative="1" as="geometry">
            <mxPoint x="415" y="1120" as="targetPoint" />
          </mxGeometry>
        </mxCell>
        <mxCell id="TVnabSG94cQ8gydF37tB-1" value="" style="rounded=0;whiteSpace=wrap;html=1;fillColor=#0D0D0D;gradientColor=#b3b3b3;strokeColor=#666666;" vertex="1" parent="1">
          <mxGeometry x="40" y="50" width="750" height="2400" as="geometry" />
        </mxCell>
        <mxCell id="TVnabSG94cQ8gydF37tB-2" value="&lt;font color=&quot;#ffffff&quot;&gt;Nome&lt;/font&gt;" style="rounded=1;whiteSpace=wrap;html=1;fillStyle=auto;shadow=1;fillColor=default;gradientColor=default;strokeColor=#666666;" vertex="1" parent="1">
          <mxGeometry x="40" y="70" width="750" height="140" as="geometry" />
        </mxCell>
        <mxCell id="TVnabSG94cQ8gydF37tB-3" value="Foto" style="rhombus;whiteSpace=wrap;html=1;shadow=1;strokeColor=default;" vertex="1" parent="1">
          <mxGeometry x="90" y="100" width="90" height="80" as="geometry" />
        </mxCell>
        <mxCell id="TVnabSG94cQ8gydF37tB-4" value="rede sociais" style="rounded=1;whiteSpace=wrap;html=1;fillColor=#a20025;strokeColor=#6F0000;align=center;fontColor=#ffffff;gradientColor=none;" vertex="1" parent="1">
          <mxGeometry x="174" y="210" width="120" height="30" as="geometry" />
        </mxCell>
        <mxCell id="TVnabSG94cQ8gydF37tB-6" value="formações e qualificações" style="rounded=1;whiteSpace=wrap;html=1;align=center;fillColor=#a20025;fontColor=#ffffff;strokeColor=#6F0000;" vertex="1" parent="1">
          <mxGeometry x="294" y="210" width="120" height="30" as="geometry" />
        </mxCell>
        <mxCell id="TVnabSG94cQ8gydF37tB-11" value="Habilidades" style="rounded=1;whiteSpace=wrap;html=1;fillColor=#a20025;strokeColor=#6F0000;align=center;fontColor=#ffffff;" vertex="1" parent="1">
          <mxGeometry x="414" y="210" width="120" height="30" as="geometry" />
        </mxCell>
        <mxCell id="TVnabSG94cQ8gydF37tB-27" style="edgeStyle=orthogonalEdgeStyle;rounded=0;orthogonalLoop=1;jettySize=auto;html=1;" edge="1" parent="1">
          <mxGeometry relative="1" as="geometry">
            <mxPoint x="424" y="1440" as="sourcePoint" />
            <mxPoint x="424" y="2450" as="targetPoint" />
          </mxGeometry>
        </mxCell>
        <mxCell id="TVnabSG94cQ8gydF37tB-12" value="" style="rounded=0;whiteSpace=wrap;html=1;strokeColor=#0D0D0D;fillColor=#0D0D0D;" vertex="1" parent="1">
          <mxGeometry x="40" y="1400" width="750" height="60" as="geometry" />
        </mxCell>
        <mxCell id="TVnabSG94cQ8gydF37tB-16" value="sobre mim" style="rounded=1;whiteSpace=wrap;html=1;fillColor=#a20025;strokeColor=#6F0000;align=center;fontColor=#ffffff;" vertex="1" parent="1">
          <mxGeometry x="534" y="210" width="120" height="30" as="geometry" />
        </mxCell>
        <mxCell id="TVnabSG94cQ8gydF37tB-17" value="FOTO -sobre mim" style="whiteSpace=wrap;html=1;aspect=fixed;rounded=0;glass=0;shadow=0;fillColor=#f5f5f5;gradientColor=#b3b3b3;strokeColor=#666666;" vertex="1" parent="1">
          <mxGeometry x="70" y="340" width="270" height="270" as="geometry" />
        </mxCell>
        <mxCell id="TVnabSG94cQ8gydF37tB-20" value="" style="whiteSpace=wrap;html=1;aspect=fixed;fillColor=#f5f5f5;gradientColor=#b3b3b3;strokeColor=#666666;" vertex="1" parent="1">
          <mxGeometry x="440" y="710" width="270" height="270" as="geometry" />
        </mxCell>
        <mxCell id="TVnabSG94cQ8gydF37tB-21" value="Resumo sobre mim" style="rounded=0;whiteSpace=wrap;html=1;shadow=1;fillColor=#a20025;fontColor=#ffffff;strokeColor=#6F0000;gradientColor=default;" vertex="1" parent="1">
          <mxGeometry x="425" y="380" width="300" height="180" as="geometry" />
        </mxCell>
        <mxCell id="TVnabSG94cQ8gydF37tB-24" value="Resumo sobre mim" style="rounded=0;whiteSpace=wrap;html=1;shadow=1;fillColor=#a20025;fontColor=#ffffff;strokeColor=#6F0000;gradientColor=default;" vertex="1" parent="1">
          <mxGeometry x="60" y="750" width="300" height="180" as="geometry" />
        </mxCell>
        <mxCell id="TVnabSG94cQ8gydF37tB-25" value="" style="whiteSpace=wrap;html=1;aspect=fixed;fillColor=#f5f5f5;gradientColor=#b3b3b3;strokeColor=#666666;" vertex="1" parent="1">
          <mxGeometry x="75" y="1090" width="270" height="270" as="geometry" />
        </mxCell>
        <mxCell id="TVnabSG94cQ8gydF37tB-26" value="Resumo sobre mim" style="rounded=0;whiteSpace=wrap;html=1;shadow=1;fillColor=#a20025;fontColor=#ffffff;strokeColor=#6F0000;gradientColor=default;" vertex="1" parent="1">
          <mxGeometry x="425" y="1130" width="300" height="180" as="geometry" />
        </mxCell>
      </root>
    </mxGraphModel>
  </diagram>
</mxfile>
